<?xml version="1.0" standalone="no"?>
<!DOCTYPE svg PUBLIC "-//W3C//DTD SVG 20010904//EN"
 "http://www.w3.org/TR/2001/REC-SVG-20010904/DTD/svg10.dtd">
<svg version="1.0" xmlns="http://www.w3.org/2000/svg"
 width="500.000000pt" height="500.000000pt" viewBox="0 0 500.000000 500.000000"
 preserveAspectRatio="xMidYMid meet">

<g transform="translate(0.000000,500.000000) scale(0.100000,-0.100000)"
fill="#000000" stroke="none">
<path d="M3660 3305 l0 -45 370 0 370 0 0 -380 0 -380 50 0 50 0 0 425 0 425
-420 0 -420 0 0 -45z"/>
<path d="M860 2910 l0 -110 50 0 50 0 0 61 0 62 51 -6 c121 -15 184 -105 157
-229 -15 -74 -91 -128 -180 -128 -27 0 -28 1 -28 60 l0 60 -50 0 -50 0 0 -111
0 -112 103 6 c125 7 187 27 242 81 56 53 80 130 72 227 -14 171 -124 249 -349
249 l-68 0 0 -110z"/>
<path d="M1448 2788 l-3 -233 -32 -3 c-32 -3 -33 -5 -33 -48 l0 -44 115 0 115
0 0 44 c0 41 -2 45 -27 48 l-28 3 -3 233 -2 232 -50 0 -50 0 -2 -232z"/>
<path d="M1950 3013 c-64 -11 -127 -39 -166 -75 -58 -54 -78 -114 -72 -223 5
-97 35 -160 97 -200 47 -31 153 -55 249 -55 l72 0 0 175 0 175 -105 0 -105 0
0 -55 0 -55 55 0 55 0 0 -70 0 -70 -37 1 c-119 2 -195 91 -179 208 14 106 70
143 218 149 l98 4 0 49 0 49 -77 -1 c-43 -1 -89 -4 -103 -6z"/>
<path d="M2298 2788 l-3 -233 -32 -3 c-32 -3 -33 -5 -33 -48 l0 -44 115 0 115
0 0 44 c0 41 -2 45 -27 48 l-28 3 -3 233 -2 232 -50 0 -50 0 -2 -232z"/>
<path d="M2560 2856 l0 -164 121 -4 c113 -3 122 -5 140 -27 24 -29 24 -43 0
-72 -16 -19 -30 -24 -90 -27 l-71 -4 0 -50 0 -51 79 5 c128 7 190 53 198 145
5 54 -23 111 -58 120 -10 3 -19 7 -19 8 0 2 16 19 36 39 35 35 36 38 32 96 -8
110 -78 150 -265 150 l-103 0 0 -164z m244 43 c61 -48 13 -109 -85 -109 l-59
0 0 65 0 65 59 0 c44 0 65 -5 85 -21z"/>
<path d="M3108 2788 l-3 -233 -32 -3 c-32 -3 -33 -5 -33 -48 l0 -44 115 0 115
0 0 44 c0 41 -2 45 -27 48 l-28 3 -3 233 -2 232 -50 0 -50 0 -2 -232z"/>
<path d="M3370 2975 l0 -45 165 0 165 0 0 45 0 45 -165 0 -165 0 0 -45z"/>
<path d="M3800 2740 l0 -280 130 0 130 0 0 50 0 50 -80 0 -80 0 0 65 0 65 115
0 115 0 0 50 0 50 -115 0 -115 0 0 65 0 65 80 0 80 0 0 50 0 50 -130 0 -130 0
0 -280z"/>
<path d="M500 2500 l0 -430 420 0 420 0 0 50 0 50 -370 0 -370 0 0 380 0 380
-50 0 -50 0 0 -430z"/>
<path d="M3480 2640 l0 -181 53 3 52 3 0 175 0 175 -52 3 -53 3 0 -181z"/>
</g>
</svg>
